<?xml version="1.0" standalone="no"?>
<!DOCTYPE svg PUBLIC "-//W3C//DTD SVG 20010904//EN"
 "http://www.w3.org/TR/2001/REC-SVG-20010904/DTD/svg10.dtd">
<svg version="1.0" xmlns="http://www.w3.org/2000/svg"
 width="1742.000000pt" height="1112.000000pt" viewBox="0 0 1742.000000 1112.000000"
 preserveAspectRatio="xMidYMid meet">

<g transform="translate(0.000000,1112.000000) scale(0.100000,-0.100000)"
fill="#00C3A5" stroke="none">
<path d="M7956 5869 c-335 -49 -622 -250 -761 -532 -39 -80 -54 -125 -79 -238
-5 -24 -11 -27 -69 -32 -247 -23 -496 -249 -587 -535 -43 -132 -57 -257 -42
-369 22 -162 82 -302 181 -421 107 -126 234 -212 394 -265 83 -27 108 -31 255
-35 l162 -4 0 181 0 181 -97 0 c-180 0 -291 39 -393 136 -137 130 -172 308
-101 503 55 151 147 256 268 307 63 27 77 29 194 28 l127 0 4 65 c6 76 42 188
104 317 59 124 142 203 286 273 218 106 407 107 618 4 76 -37 109 -60 165
-117 109 -110 155 -225 171 -427 l7 -87 61 28 c159 72 344 68 483 -11 62 -36
158 -136 196 -206 37 -69 67 -191 67 -272 -1 -206 -120 -406 -295 -492 l-69
-34 -241 -6 c-132 -4 -457 -7 -722 -8 l-483 -1 0 -185 0 -185 698 0 c459 0
718 4 757 11 213 39 436 187 564 373 48 70 108 202 132 291 29 106 32 344 6
447 -72 290 -261 522 -514 634 -77 34 -206 64 -279 64 l-62 0 -22 54 c-50 125
-187 290 -316 382 -212 151 -506 221 -768 183z"/>
<path d="M5400 1260 l0 -760 85 0 85 0 0 39 c0 72 7 76 57 30 76 -70 119 -84
258 -84 111 0 124 2 176 28 160 78 249 265 249 522 0 347 -158 555 -421 555
-109 0 -203 -36 -281 -108 l-28 -26 0 282 0 282 -90 0 -90 0 0 -760z m529 164
c127 -37 201 -181 201 -389 0 -251 -107 -405 -281 -405 -96 0 -191 51 -239
127 l-30 47 0 232 0 232 33 48 c68 103 192 145 316 108z"/>
<path d="M15300 1260 l0 -760 120 0 120 0 0 760 0 760 -120 0 -120 0 0 -760z"/>
<path d="M15884 1965 c-73 -37 -87 -152 -25 -207 26 -24 40 -28 87 -28 100 0
151 50 141 138 -7 66 -49 104 -119 109 -35 2 -63 -2 -84 -12z"/>
<path d="M8050 1220 l0 -720 267 0 c301 0 346 7 473 68 142 70 251 199 307
367 26 76 27 90 28 275 0 220 -9 268 -73 400 -45 93 -158 210 -249 258 -118
62 -183 72 -485 72 l-268 0 0 -720z m605 487 c76 -36 129 -86 167 -161 42 -83
58 -170 58 -321 0 -273 -68 -418 -229 -494 -51 -24 -69 -26 -203 -29 l-148 -4
0 522 0 522 148 -4 c136 -3 151 -5 207 -31z"/>
<path d="M11690 1700 l0 -130 -90 0 -91 0 3 -87 3 -88 87 -3 87 -3 4 -357 c2
-277 6 -366 18 -397 19 -56 94 -130 144 -144 51 -14 188 -14 238 0 l37 10 0
91 0 91 -46 -7 c-26 -3 -65 -1 -86 5 -66 17 -68 31 -68 394 l0 315 95 0 95 0
0 90 0 90 -95 0 -95 0 0 130 0 130 -120 0 -120 0 0 -130z"/>
<path d="M9691 1574 c-225 -60 -361 -267 -361 -546 1 -269 138 -477 354 -534
76 -21 231 -18 305 5 168 52 290 196 326 384 64 334 -82 622 -350 692 -73 19
-202 18 -274 -1z m229 -195 c122 -55 179 -185 167 -382 -9 -157 -57 -256 -148
-305 -37 -20 -55 -23 -121 -20 -66 3 -82 7 -119 33 -93 65 -135 184 -126 355
6 129 32 206 91 268 68 71 168 91 256 51z"/>
<path d="M10851 1575 c-81 -23 -145 -62 -205 -125 -103 -108 -139 -216 -139
-415 0 -92 5 -149 17 -194 49 -181 164 -305 321 -345 83 -22 218 -21 294 3
150 47 269 174 288 306 l6 46 -113 -3 -114 -3 -9 -35 c-13 -51 -50 -95 -102
-120 -38 -18 -59 -21 -120 -18 -62 3 -81 8 -117 33 -89 62 -132 224 -110 414
13 109 42 180 92 225 121 109 325 47 358 -109 l8 -40 112 -3 112 -3 0 31 c0
45 -37 147 -71 197 -40 58 -116 117 -186 144 -76 29 -243 36 -322 14z"/>
<path d="M12613 1575 c-159 -43 -269 -147 -331 -313 -33 -90 -42 -292 -18
-396 38 -161 130 -280 264 -344 68 -32 85 -36 182 -40 60 -2 130 1 159 7 173
37 308 174 358 364 21 77 23 269 4 347 -34 140 -130 274 -239 333 -99 54 -267
72 -379 42z m243 -203 c21 -11 49 -31 61 -44 101 -109 121 -369 41 -528 -28
-54 -42 -70 -88 -97 -46 -28 -63 -33 -120 -33 -82 0 -134 23 -183 80 -52 61
-69 117 -74 250 -10 216 46 338 176 387 47 18 137 11 187 -15z"/>
<path d="M13842 1573 c-25 -9 -64 -36 -93 -64 l-49 -50 0 56 0 55 -115 0 -115
0 0 -535 0 -535 120 0 120 0 0 377 0 376 44 43 c52 50 119 69 215 62 l61 -4 0
112 c0 93 -3 113 -16 118 -28 11 -128 5 -172 -11z"/>
<path d="M14458 1574 c-158 -38 -288 -159 -300 -279 l-3 -30 118 -3 c105 -2
118 -1 123 15 20 61 31 76 73 101 60 35 166 39 220 7 59 -35 75 -67 80 -156
l3 -79 -128 0 c-262 -1 -411 -65 -481 -208 -24 -49 -28 -69 -28 -142 1 -102
26 -161 100 -229 71 -65 122 -84 240 -89 116 -4 183 15 261 74 29 23 46 30 48
22 3 -7 9 -26 14 -43 l9 -30 125 -3 126 -3 -15 43 c-24 70 -33 197 -33 490 0
259 -1 281 -22 335 -25 68 -100 148 -168 180 -95 44 -247 55 -362 27z m312
-683 l0 -109 -32 -33 c-98 -98 -282 -106 -341 -15 -23 35 -31 98 -18 138 29
87 119 127 284 128 l107 0 0 -109z"/>
<path d="M16640 1575 c-163 -46 -276 -150 -296 -274 l-7 -41 120 0 120 0 12
39 c21 73 106 118 202 109 110 -11 169 -78 169 -195 l0 -63 -125 0 c-262 0
-423 -69 -489 -210 -17 -36 -21 -64 -21 -140 0 -87 3 -100 30 -149 57 -104
158 -162 294 -169 113 -6 178 10 256 63 l63 44 11 -45 11 -44 125 0 c69 0 125
1 125 3 0 1 -8 25 -17 52 -14 41 -17 112 -22 410 l-6 360 -33 68 c-39 79 -101
134 -189 167 -77 29 -253 37 -333 15z m320 -679 c0 -98 -2 -106 -26 -135 -46
-55 -107 -84 -188 -88 -84 -5 -128 13 -163 66 -43 64 -23 168 40 213 47 33
111 47 230 47 l107 1 0 -104z"/>
<path d="M6464 1478 c18 -51 104 -290 191 -531 l158 -438 -24 -71 c-53 -159
-104 -207 -230 -216 l-69 -5 0 -68 c0 -37 4 -70 9 -73 5 -4 36 -9 68 -12 95
-10 163 15 233 84 31 31 68 82 83 112 25 51 457 1283 457 1302 0 5 -43 7 -96
6 l-96 -3 -122 -392 c-67 -216 -124 -394 -127 -397 -2 -3 -64 175 -138 395
l-133 399 -99 0 -99 0 34 -92z"/>
<path d="M15830 1035 l0 -535 120 0 120 0 0 535 0 535 -120 0 -120 0 0 -535z"/>
</g>
</svg>
