<?xml version="1.0" standalone="no"?>
<!DOCTYPE svg PUBLIC "-//W3C//DTD SVG 20010904//EN"
 "http://www.w3.org/TR/2001/REC-SVG-20010904/DTD/svg10.dtd">
<svg version="1.0" xmlns="http://www.w3.org/2000/svg"
 width="400.000000pt" height="200.000000pt" viewBox="0 0 400.000000 200.000000"
 preserveAspectRatio="xMidYMid meet">

<g transform="translate(0.000000,200.000000) scale(0.100000,-0.100000)"
fill="#00C3A5" stroke="none">
<path d="M1460 1307 c-46 -16 -70 -60 -77 -146 -5 -62 -8 -70 -29 -75 -35 -9
-34 -56 1 -56 l25 0 2 -177 3 -178 38 -3 37 -3 0 180 0 180 58 3 c56 3 57 3
57 33 0 30 -1 30 -59 33 l-58 3 4 61 c6 76 23 92 90 84 41 -6 47 -4 53 14 9
28 1 36 -49 49 -53 13 -52 13 -96 -2z"/>
<path d="M1775 1101 c-95 -24 -145 -98 -145 -216 0 -77 18 -126 60 -166 37
-35 99 -59 153 -59 39 0 120 28 150 52 26 22 27 24 12 45 l-15 22 -53 -24
c-90 -43 -180 -28 -212 35 -30 58 -26 60 98 61 61 0 130 3 152 7 l40 8 0 65
c0 56 -4 71 -28 102 -15 20 -41 44 -56 51 -35 19 -117 27 -156 17z m115 -76
c31 -16 43 -33 54 -77 l6 -28 -120 0 c-135 0 -139 3 -100 68 32 51 101 67 160
37z"/>
<path d="M2216 1099 c-55 -13 -91 -43 -116 -94 -19 -39 -21 -59 -18 -134 3
-82 5 -92 34 -128 49 -60 88 -78 169 -78 56 0 80 5 120 26 54 28 63 44 43 72
-12 16 -16 15 -63 -9 -41 -21 -60 -25 -109 -22 -51 4 -63 9 -87 36 -16 18 -29
43 -29 56 0 23 1 23 139 28 168 5 175 9 169 85 -10 122 -122 194 -252 162z
m113 -70 c33 -12 61 -52 61 -89 0 -19 -6 -20 -115 -20 -107 0 -115 1 -115 20
0 76 82 119 169 89z"/>
<path d="M2659 1095 c-64 -21 -114 -77 -129 -148 -23 -102 8 -213 73 -261 43
-32 132 -29 185 7 l42 27 0 -50 c0 -72 -22 -118 -64 -135 -41 -17 -116 -19
-165 -5 -19 5 -35 9 -36 7 -1 -1 -5 -14 -9 -29 -6 -25 -3 -28 31 -37 54 -15
178 -13 216 3 47 19 84 67 96 126 6 28 11 151 11 275 l0 225 -28 0 c-16 0 -62
2 -103 5 -50 3 -89 0 -120 -10z m171 -180 l0 -125 -47 -30 c-104 -66 -183 -13
-183 122 0 108 53 158 168 158 l62 0 0 -125z"/>
<path d="M3102 1098 c-95 -21 -152 -124 -138 -245 8 -67 25 -101 70 -141 103
-90 272 -58 327 63 21 46 25 153 8 206 -18 52 -67 98 -123 114 -55 17 -81 17
-144 3z m133 -72 c46 -19 68 -66 68 -141 0 -109 -50 -162 -145 -153 -78 8
-118 61 -118 155 0 116 92 182 195 139z"/>
<path d="M3376 1101 c-3 -4 28 -104 69 -221 41 -117 75 -215 75 -217 0 -9 69
-1 77 10 6 6 23 50 38 97 15 47 31 89 35 93 4 5 23 -38 42 -95 34 -101 35
-103 68 -106 18 -2 36 0 41 5 16 16 150 415 145 430 -4 9 -17 13 -38 11 l-33
-3 -56 -170 -56 -170 -53 165 c-29 91 -58 168 -64 172 -16 11 -54 10 -61 -2
-4 -6 2 -34 13 -63 l19 -52 -37 -110 c-20 -60 -39 -105 -42 -100 -3 6 -27 80
-53 165 -26 85 -53 158 -59 162 -15 11 -64 10 -70 -1z"/>
</g>
</svg>
