<svg class="svg-icon" style="width: 1em; height: 1em;vertical-align: middle;fill: currentColor;overflow: hidden;" viewBox="0 0 1024 1024" version="1.1" xmlns="http://www.w3.org/2000/svg"><path d="M138.24 474.624v409.6h307.2v-460.8h-256a51.2 51.2 0 0 0-51.2 51.2z m102.4 51.2h102.4v102.4h-102.4z m0 204.8h102.4v102.4h-102.4zM852.992 167.424h-307.2a76.8 76.8 0 0 0-76.8 76.8v640h169.472v-177.152h121.856v31.232l7.168 7.168h-7.168v138.752h169.472V244.224a76.8 76.8 0 0 0-76.8-76.8z m-51.2 266.24h-76.8V512h-51.2V434.176h-76.8v-51.2h76.8V307.2h51.2v76.8h76.8z" fill="" /></svg>